PathFileType	4	(X/Y/Z)	2014001\dynamic\2014001_C1_03.trc
DataRate	CameraRate	NumFrames	NumMarkers	Units	OrigDataRate	OrigDataStartFrame	OrigNumFrames
100.000000	100.000000	4	52	mm	100.000000	0	490
Frame#	Time	L_IAS			L_IPS			R_IPS			R_IAS			L_FTC			L_FLE			L_FME			L_FAX			L_TTC			L_FAL			L_TAM			L_FCC			L_FM1			L_FM2			L_FM5			R_FTC			R_FLE			R_FME			R_FAX			R_TTC			R_FAL			R_TAM			R_FCC			R_FM1			R_FM2			R_FM5			CV7			TV10			SXS			SJN			L_SIA			L_SRS			L_SAA			L_SAE			L_HLE			L_HME			L_UOA			L_RSP			L_UHE			L_HM2			L_HM5			R_SIA			R_SRS			R_SAA			R_SAE			R_HLE			R_HME			R_UOA			R_RSP			R_UHE			R_HM2			R_HM5			
		X1	Y1	Z1	X2	Y2	Z2	X3	Y3	Z3	X4	Y4	Z4	X5	Y5	Z5	X6	Y6	Z6	X7	Y7	Z7	X8	Y8	Z8	X9	Y9	Z9	X10	Y10	Z10	X11	Y11	Z11	X12	Y12	Z12	X13	Y13	Z13	X14	Y14	Z14	X15	Y15	Z15	X16	Y16	Z16	X17	Y17	Z17	X18	Y18	Z18	X19	Y19	Z19	X20	Y20	Z20	X21	Y21	Z21	X22	Y22	Z22	X23	Y23	Z23	X24	Y24	Z24	X25	Y25	Z25	X26	Y26	Z26	X27	Y27	Z27	X28	Y28	Z28	X29	Y29	Z29	X30	Y30	Z30	X31	Y31	Z31	X32	Y32	Z32	X33	Y33	Z33	X34	Y34	Z34	X35	Y35	Z35	X36	Y36	Z36	X37	Y37	Z37	X38	Y38	Z38	X39	Y39	Z39	X40	Y40	Z40	X41	Y41	Z41	X42	Y42	Z42	X43	Y43	Z43	X44	Y44	Z44	X45	Y45	Z45	X46	Y46	Z46	X47	Y47	Z47	X48	Y48	Z48	X49	Y49	Z49	X50	Y50	Z50	X51	Y51	Z51	X52	Y52	Z52	

1	0	319.2112121582032	860.8804321289067	-106.9149017333985	237.4289855957032	892.0080566406255	-285.8616638183595	148.7964172363282	888.224731445313	-282.5049133300782	76.30300140380862	855.7377319335942	-103.6154479980469	378.4562072753907	777.5369262695317	-175.1604461669922	362.1938781738282	448.0767211914065	-36.63237762451173	248.7017974853517	447.4693908691409	1.75309979915619	366.3628234863282	383.2558898925782	-34.65597915649415	329.9379882812501	390.4801940917971	36.7869110107422	339.6776123046876	75.94304656982425	68.57979583740237	257.3403625488282	99.73161315917974	103.2377929687501	288.1853027343751	20.51545143127442	54.8676681518555	296.4795837402345	103.9505844116212	216.3957824707032	354.689178466797	108.285140991211	209.3597717285157	383.8459472656251	69.81469726562503	169.8287048339844	23.03313827514649	759.0637207031252	-200.8850250244142	87.00764465332034	415.3978576660159	-239.4645080566407	207.875701904297	411.4215393066409	-234.8877258300782	87.73562622070315	352.2489013671876	-270.8567504882814	144.0982971191407	337.3735656738282	-216.4098358154298	151.9980468750001	65.40335083007815	-392.2749633789065	239.0703125000001	78.43273925781253	-355.6027832031251	209.1086425781251	27.59877967834474	-439.1393127441409	221.5625305175782	18.01488876342774	-254.1563415527345	158.6516265869141	31.80963134765626	-246.7384033203126	112.3928451538087	20.82762145996094	-308.9648437500001	199.1423645019532	1360.783813476563	-248.8966674804689	193.0594329833986	1128.533081054688	-319.395233154297	208.6555023193361	1125.886474609375	-87.50834655761722	209.8683929443361	1288.581176757813	-124.6158142089844	285.3612060546876	1166.37646484375	-329.5479125976564	282.9818725585939	1296.403442382813	-302.7152099609376	395.8788146972659	1285.510375976563	-236.1125030517579	384.4480285644534	1295.676391601563	-194.2835998535157	447.355651855469	1010.884643554688	-248.9494781494142	368.392303466797	981.3134155273442	-262.1036376953126	415.4521179199221	977.199096679688	-277.104217529297	417.7139587402346	787.2355957031255	-136.7692413330079	475.7865905761721	778.3377075195317	-191.2842559814454	428.5976562500002	709.7158813476565	-98.76865386962896	475.176940917969	698.946228027344	-189.2579803466797	77.83999633789065	1174.281982421875	-314.1493530273439	104.9707870483399	1297.24755859375	-285.6911621093751	8.163748741149906	1291.97265625	-197.2519836425782	24.38297653198244	1294.754760742188	-151.0141143798829	-56.06954193115237	992.7272949218755	-196.0726623535157	16.40463447570801	976.4078979492192	-230.7039337158204	-29.6848545074463	968.8344116210942	-230.0222473144532	-15.46930408477784	788.3417968750005	-91.85858154296878	-82.35707855224612	784.1300659179692	-140.1881713867188	-30.9181594848633	701.2573852539065	-57.22736358642581	-82.429069519043	704.485778808594	-145.5568237304688	
2	0.01	319.8794555664064	859.823120117188	-102.5795364379883	238.8988647460939	891.5136108398442	-281.7387695312501	150.2505950927735	887.9031372070317	-278.7318420410157	76.93087005615237	855.0993041992192	-100.2632522583008	379.384246826172	776.4628295898442	-171.0471343994141	362.0692749023439	446.2671508789065	-34.65585708618165	248.6287078857423	445.705261230469	3.538206100463869	366.1193847656251	381.3783264160157	-32.93557739257814	329.5947875976564	388.4637756347659	38.474178314209	338.8368530273439	73.88618469238284	69.54656219482425	256.3440551757814	97.52111816406256	103.9049530029297	287.2605895996095	18.56173133850098	55.59970474243167	295.3504943847657	101.3316650390626	217.4488677978517	353.6253967285157	105.7413864135743	210.4844207763673	382.7990112304689	67.38616943359378	170.8538818359376	23.94428253173829	758.8997802734377	-197.9661254882814	87.35561370849612	415.2641296386721	-237.9974822998048	208.3814544677736	411.1472778320315	-233.3652343750001	88.03468322753909	352.2567443847657	-269.5684509277345	144.2481994628907	337.1161499023439	-215.091522216797	151.9793548583985	65.79907226562503	-392.1102294921877	239.0554809570314	78.58960723876956	-355.3754882812501	209.0630950927736	28.12680244445802	-439.1174316406252	221.5307617187501	17.9933090209961	-254.1878204345704	158.5906066894532	31.78549957275392	-246.7305297851564	112.366813659668	20.81984329223634	-308.9658508300782	200.5030059814454	1360.105346679688	-245.0879364013673	194.7146301269532	1127.817993164063	-315.3934326171876	209.6187744140626	1125.366943359375	-83.43852233886722	210.9274291992189	1287.982055664063	-120.7654342651368	286.8746643066407	1165.612426757813	-325.378143310547	284.4583435058595	1295.684692382813	-298.6658020019532	397.1883239746096	1284.860229492188	-231.8654174804689	385.7266235351565	1295.0361328125	-190.0079193115235	448.6157226562502	1010.279418945313	-244.7669830322267	369.6673278808595	980.7395629882817	-258.0400695800782	416.7369384765627	976.6732788085942	-273.0056762695314	418.7267761230471	786.340209960938	-132.9995422363282	476.9797363281252	777.5606079101567	-187.6488189697266	429.6372985839846	708.7215576171877	-95.41336059570315	476.3479309082034	698.2061157226565	-185.8603057861329	79.44293212890628	1173.558959960938	-310.5137939453126	106.4589233398438	1296.549194335938	-282.0848693847657	9.423069000244144	1291.295043945313	-193.8726501464845	25.53327369689943	1294.124267578125	-147.6355133056641	-54.84342575073245	992.0783691406255	-192.756317138672	17.69210433959962	975.7666015625005	-227.2650299072267	-28.40870475769044	968.1738281250005	-226.6501922607423	-14.49303722381593	787.677856445313	-88.57876586914065	-81.29878234863284	783.4826049804692	-137.0187377929688	-30.02889442443849	700.569519042969	-53.98183441162112	-81.38092041015628	703.8425292968752	-142.4105529785157	
3	0.02	320.5490722656251	858.7996215820317	-98.09767913818365	240.412811279297	891.044311523438	-277.4992065429689	151.7485656738282	887.5856323242192	-274.8450012207032	77.57408142089847	854.4432983398442	-96.81027984619146	380.3189086914064	775.4298706054692	-166.8075256347657	361.9960327148439	444.4204101562502	-32.78826904296876	248.5650024414064	443.7950744628909	5.009147167205812	365.9607238769532	379.476287841797	-31.35812759399415	329.2377319335939	386.3858337402346	39.996150970459	338.1348571777345	71.83493804931643	70.35622406005862	255.4553833007814	95.250846862793	104.3918457031251	286.5001831054689	16.68122673034669	56.04118347167972	294.2037963867189	98.38245391845709	218.3851776123048	352.5605773925782	102.9244461059571	211.5086517333986	381.7781066894532	64.7748947143555	171.7489166259766	24.8956985473633	758.7672119140627	-195.0145416259767	87.73902893066409	415.1507263183596	-236.4543457031251	208.9229125976564	410.8775939941409	-231.7708740234376	88.36042785644534	352.2840576171876	-268.2087402343751	144.4537506103516	336.8429565429689	-213.7335510253907	151.959701538086	66.23911285400393	-391.9288024902346	239.0465698242189	78.77393341064456	-355.1254272460939	209.0088500976564	28.71156501770021	-439.0867004394534	221.494842529297	17.97612190246583	-254.218719482422	158.5363006591797	31.76239395141603	-246.7187042236329	112.349708557129	20.81757736206055	-308.9618225097657	201.9210968017579	1359.436279296875	-241.176483154297	196.441619873047	1127.10986328125	-311.2710876464845	210.6077728271486	1124.85986328125	-79.25635528564456	212.0185089111329	1287.38916015625	-116.8153228759766	288.4592895507814	1164.8466796875	-321.0761718750001	286.0099487304689	1294.97265625	-294.4885559082032	398.5556640625002	1284.208984375	-227.4753265380861	387.0588378906252	1294.395629882813	-185.5882568359376	449.9281921386721	1009.678344726563	-240.4599914550782	370.9995727539064	980.1737670898442	-253.8668823242189	418.0773925781252	976.167602539063	-268.7935485839845	419.7942810058596	785.4219360351567	-129.1987304687501	478.2402648925784	776.7612304687505	-183.9993438720704	430.747009277344	707.6680908203127	-92.07978057861331	477.5900878906252	697.4490356445315	-182.4916229248047	81.13859558105472	1172.828002929688	-306.7944641113282	108.0254287719727	1295.861938476563	-278.4038391113282	10.73148441314698	1290.611694335938	-190.4305725097657	26.70933723449708	1293.477294921875	-144.1544036865235	-53.55962753295901	991.4257202148442	-189.3817291259766	19.04304122924805	975.1223754882817	-223.7562561035157	-27.07226371765138	967.5046997070317	-223.2080078125001	-13.49885749816895	787.0139160156255	-85.2702331542969	-80.20292663574222	782.8231811523442	-133.8221740722657	-29.12812614440919	699.8648071289065	-50.70767974853518	-80.30419921875003	703.1926879882815	-139.2443847656251	
4	0.03	321.2225646972657	857.8322753906255	-93.48509216308597	241.9575805664064	890.6117553710942	-273.1564941406251	153.2770996093751	887.2802124023442	-270.8518981933595	78.23980712890628	853.7764282226567	-93.25470733642581	381.2495422363282	774.459838867188	-162.4434051513672	361.9927062988282	442.5699462890627	-31.01735496520998	248.5213928222657	441.7619934082034	6.155610084533695	365.9078979492189	377.5889587402345	-29.90038681030275	328.886199951172	384.2919006347659	41.38008117675783	337.6002807617189	69.85393524169925	71.10234069824222	254.7098388671876	92.99317932128909	104.8078155517579	285.9122009277345	14.9690980911255	56.27410125732425	293.103485107422	95.13543701171878	219.3126831054689	351.554412841797	99.84904479980474	212.5311431884767	380.8277587890626	62.00496292114261	172.5923614501954	25.8816547393799	758.671325683594	-192.028289794922	88.15808868408206	415.0631103515627	-234.8205718994142	209.4878387451173	410.6127624511721	-230.0781250000001	88.71302795410159	352.3377075195314	-266.7693786621095	144.7135009765626	336.5627441406251	-212.3215942382814	151.9350738525391	66.7314147949219	-391.7268066406252	239.0395050048829	78.99693298339847	-354.8514099121095	208.9420471191407	29.36491775512697	-439.043151855469	221.4530029296876	17.96455574035645	-254.2476959228517	158.4893188476563	31.74047851562501	-246.7012786865236	112.341896057129	20.82110404968262	-308.9505615234376	203.4002075195314	1358.790161132813	-237.157440185547	198.2284698486329	1126.4267578125	-307.0330200195314	211.6233825683595	1124.369750976563	-74.96939849853518	213.1440887451173	1286.811401367188	-112.7609329223633	290.1135864257814	1164.095947265625	-316.6441650390626	287.6380004882814	1294.283447265625	-290.1789550781251	399.9836425781252	1283.563720703125	-222.9341583251954	388.4440002441409	1293.761596679688	-181.0193939208985	451.2925109863284	1009.086364746094	-236.0170745849611	372.3887023925782	979.6232299804692	-249.5789184570314	419.4736022949221	975.6882934570317	-264.4579467773439	420.9196472167971	784.4793090820317	-125.3783493041993	479.5672302246096	775.9478149414067	-180.3291015625001	431.9258117675784	706.5621337890627	-88.76238250732425	478.9035644531252	696.6817626953127	-179.1456604003907	82.92291259765628	1172.109130859375	-302.9942016601564	109.6696090698243	1295.201904296875	-274.6395874023439	12.088849067688	1289.9345703125	-186.9187927246094	27.91542434692384	1292.831298828125	-140.5803985595704	-52.21457672119143	990.7791137695317	-185.9482879638672	20.46269226074219	974.484985351563	-220.173309326172	-25.67008018493654	966.8377075195317	-219.6942596435548	-12.48766994476319	786.360473632813	-81.93302917480472	-79.06707000732425	782.161743164063	-130.5992584228516	-28.21989059448244	699.1541748046877	-47.40336227416994	-79.19731140136722	702.5464477539065	-136.0599822998047	
